<?xml version="1.0" encoding="UTF-8"?>
<svg width="8px" height="8px" viewBox="0 0 8 8" version="1.1" xmlns="http://www.w3.org/2000/svg" xmlns:xlink="http://www.w3.org/1999/xlink">
    <!-- Generator: Sketch 48.2 (47327) - http://www.bohemiancoding.com/sketch -->
    <title>Icon/Cancel</title>
    <desc>Created with Sketch.</desc>
    <defs>
        <path d="M8,6.43771044 C8,6.61728485 7.9371499,6.76992081 7.81144781,6.8956229 L6.8956229,7.81144781 C6.76992081,7.9371499 6.61728485,8 6.43771044,8 C6.25813603,8 6.10550007,7.9371499 5.97979798,7.81144781 L4,5.83164983 L2.02020202,7.81144781 C1.89449993,7.9371499 1.74186397,8 1.56228956,8 C1.38271515,8 1.23007919,7.9371499 1.1043771,7.81144781 L0.188552189,6.8956229 C0.062850101,6.76992081 0,6.61728485 0,6.43771044 C0,6.25813603 0.062850101,6.10550007 0.188552189,5.97979798 L2.16835017,4 L0.188552189,2.02020202 C0.062850101,1.89449993 0,1.74186397 0,1.56228956 C0,1.38271515 0.062850101,1.23007919 0.188552189,1.1043771 L1.1043771,0.188552189 C1.23007919,0.062850101 1.38271515,0 1.56228956,0 C1.74186397,0 1.89449993,0.062850101 2.02020202,0.188552189 L4,2.16835017 L5.97979798,0.188552189 C6.10550007,0.062850101 6.25813603,0 6.43771044,0 C6.61728485,0 6.76992081,0.062850101 6.8956229,0.188552189 L7.81144781,1.1043771 C7.9371499,1.23007919 8,1.38271515 8,1.56228956 C8,1.74186397 7.9371499,1.89449993 7.81144781,2.02020202 L5.83164983,4 L7.81144781,5.97979798 C7.9371499,6.10550007 8,6.25813603 8,6.43771044 Z" id="path-1"></path>
    </defs>
    <g id="States" stroke="none" stroke-width="1" fill="none" fill-rule="evenodd" transform="translate(-787.000000, -224.000000)">
        <g id="Cancel" transform="translate(771.000000, 208.000000)">
            <g id="Icon/Cancel" transform="translate(16.000000, 16.000000)">
                <mask id="mask-2" fill="white">
                    <use xlink:href="#path-1"></use>
                </mask>
                <use id="ï€" fill="#E74057" fill-rule="evenodd" xlink:href="#path-1"></use>
                <g id="Color/Red" mask="url(#mask-2)" fill="#E74057" fill-rule="evenodd">
                    <rect id="Rectangle-5" x="0" y="0" width="8" height="8"></rect>
                </g>
            </g>
        </g>
    </g>
</svg>