<?xml version="1.0" encoding="UTF-8"?>
<svg width="16px" height="16px" viewBox="0 0 16 16" version="1.1" xmlns="http://www.w3.org/2000/svg" xmlns:xlink="http://www.w3.org/1999/xlink">
    <!-- Generator: Sketch 49 (51002) - http://www.bohemiancoding.com/sketch -->
    <title>clock</title>
    <desc>Created with Sketch.</desc>
    <defs></defs>
    <g id="Symbols" stroke="none" stroke-width="1" fill="none" fill-rule="evenodd">
        <g id="TopBar/Wide/Close" transform="translate(-1067.000000, -32.000000)" fill="#A5BAD0" fill-rule="nonzero">
            <g id="Group-18">
                <g id="Group-3" transform="translate(1036.000000, 0.000000)">
                    <g id="clock" transform="translate(31.000000, 32.000000)">
                        <path d="M14,7.99543677 C14,4.68438776 11.3138612,2 8,2 C4.68613882,2 2,4.68438776 2,7.99543677 C2,11.3064858 4.68613882,13.9908735 8,13.9908735 C11.3138612,13.9908735 14,11.3064858 14,7.99543677 Z M16,7.99543677 C16,12.4113473 12.4181388,15.9908735 8,15.9908735 C3.58186118,15.9908735 0,12.4113473 0,7.99543677 C0,3.57952619 3.58186118,0 8,0 C12.4181388,0 16,3.57952619 16,7.99543677 Z" id="Stroke-21"></path>
                        <path d="M7,4.99739244 C7,4.44510769 7.44771525,3.99739244 8,3.99739244 C8.55228475,3.99739244 9,4.44510769 9,4.99739244 L9,7.99543677 C9,8.54772152 8.55228475,8.99543677 8,8.99543677 C7.44771525,8.99543677 7,8.54772152 7,7.99543677 L7,4.99739244 Z" id="Stroke-23"></path>
                        <path d="M10.7068762,9.28679569 C11.0975278,9.67719263 11.0977342,10.3103576 10.7073373,10.7010092 C10.3169404,11.0916608 9.68377541,11.0918672 9.29312381,10.7014703 L7.29312381,8.70277406 C6.90247221,8.31237712 6.90226576,7.67921218 7.2926627,7.28856058 C7.68305964,6.89790897 8.31622459,6.89770253 8.70687619,7.28809947 L10.7068762,9.28679569 Z" id="Stroke-25"></path>
                    </g>
                </g>
            </g>
        </g>
    </g>
</svg>