<?xml version="1.0" encoding="UTF-8"?>
<svg width="11px" height="11px" viewBox="0 0 11 11" version="1.1" xmlns="http://www.w3.org/2000/svg" xmlns:xlink="http://www.w3.org/1999/xlink">
    <!-- Generator: Sketch 49 (51002) - http://www.bohemiancoding.com/sketch -->
    <title>Group 2</title>
    <desc>Created with Sketch.</desc>
    <defs></defs>
    <g id="Symbols" stroke="none" stroke-width="1" fill="none" fill-rule="evenodd">
        <g id="TranslateOptions" transform="translate(-118.000000, -6.000000)" fill="#E74057">
            <g id="Group-3">
                <g id="Group-7-Copy" transform="translate(110.000000, 0.000000)">
                    <g id="Group-2" transform="translate(8.000000, 6.000000)">
                        <path d="M4.41832293,3.63094463 L0.8783903,0.343864337 C1.19825641,0.126813857 1.58431873,7.63594114e-17 2,0 L9,0 C10.1045695,-2.02906125e-16 11,0.8954305 11,2 L11,9 C11,9.2253449 10.9627316,9.4419853 10.894022,9.64409381 L7.72375236,6.70027196 L6.319,2.925 C6.2589997,2.77499925 6.15100078,2.7 5.995,2.7 L5.005,2.7 C4.84899922,2.7 4.7410003,2.77499925 4.681,2.925 L4.41832293,3.63094463 Z M3.66355855,5.65937388 L2.521,8.73 L2.503,8.811 C2.503,8.86500027 2.52099982,8.90999982 2.557,8.946 C2.59300018,8.98200018 2.63799973,9 2.692,9 L3.493,9 C3.61900063,9 3.70599976,8.94300057 3.754,8.829 L4.168,7.74 L5.90423283,7.74 L9.37682868,10.9645533 C9.25478924,10.9878216 9.12881683,11 9,11 L2,11 C0.8954305,11 1.3527075e-16,10.1045695 0,9 L0,2.25749808 L3.66355855,5.65937388 Z M4.483,6.696 L5.5,3.924 L6.517,6.696 L4.483,6.696 Z" id="Combined-Shape"></path>
                    </g>
                </g>
            </g>
        </g>
    </g>
</svg>