<?xml version="1.0" encoding="UTF-8"?>
<svg width="16px" height="16px" viewBox="0 0 16 16" version="1.1" xmlns="http://www.w3.org/2000/svg" xmlns:xlink="http://www.w3.org/1999/xlink">
    <!-- Generator: Sketch 48.2 (47327) - http://www.bohemiancoding.com/sketch -->
    <title>Group 6</title>
    <desc>Created with Sketch.</desc>
    <defs></defs>
    <g id="TopBar/Wide/Close" stroke="none" stroke-width="1" fill="none" fill-rule="evenodd" transform="translate(-44.000000, -32.000000)">
        <g id="Group-18" fill="#A5BAD0" fill-rule="nonzero">
            <g id="Group" transform="translate(44.000000, 32.000000)">
                <g id="Group-6">
                    <path d="M11,6.4964146 C11,4.01319908 8.98523466,2 6.5,2 C4.01476534,2 2,4.01319908 2,6.4964146 C2,8.97963012 4.01476534,10.9928292 6.5,10.9928292 C8.98523466,10.9928292 11,8.97963012 11,6.4964146 Z M13,6.4964146 C13,10.084548 10.0894561,12.9928292 6.5,12.9928292 C2.91054388,12.9928292 0,10.084548 0,6.4964146 C0,2.90828125 2.91054388,0 6.5,0 C10.0894561,0 13,2.90828125 13,6.4964146 Z" id="Stroke-17"></path>
                    <path d="M15.7068762,14.2835362 C16.0975278,14.6739332 16.0977342,15.3070981 15.7073373,15.6977497 C15.3169404,16.0884013 14.6837754,16.0886078 14.2931238,15.6982108 L10.2931238,11.7008184 C9.90247221,11.3104215 9.90226576,10.6772565 10.2926627,10.2866049 C10.6830596,9.8959533 11.3162246,9.89574686 11.7068762,10.2861438 L15.7068762,14.2835362 Z" id="Stroke-19"></path>
                </g>
            </g>
        </g>
    </g>
</svg>