<?xml version="1.0" encoding="UTF-8"?>
<svg width="13px" height="13px" viewBox="0 0 13 13" version="1.1" xmlns="http://www.w3.org/2000/svg" xmlns:xlink="http://www.w3.org/1999/xlink">
    <!-- Generator: Sketch 48.2 (47327) - http://www.bohemiancoding.com/sketch -->
    <title>Icon/numbers</title>
    <desc>Created with Sketch.</desc>
    <defs>
        <path d="M4.875,4.875 L4.875,8.125 L8.125,8.125 L8.125,4.875 L4.875,4.875 Z M4.875,3.25 L8.125,3.25 L8.125,0.8125 C8.125,0.363768641 8.48876864,-6.04002079e-15 8.9375,-6.06749766e-15 C9.38623136,-6.09497453e-15 9.75,0.363768641 9.75,0.8125 L9.75,3.25 L12.1875,3.25 C12.6362314,3.25 13,3.61376864 13,4.0625 C13,4.51123136 12.6362314,4.875 12.1875,4.875 L9.75,4.875 L9.75,8.125 L12.1875,8.125 C12.6362314,8.125 13,8.48876864 13,8.9375 C13,9.38623136 12.6362314,9.75 12.1875,9.75 L9.75,9.75 L9.75,12.1875 C9.75,12.6362314 9.38623136,13 8.9375,13 C8.48876864,13 8.125,12.6362314 8.125,12.1875 L8.125,9.75 L4.875,9.75 L4.875,12.1875 C4.875,12.6362314 4.51123136,13 4.0625,13 C3.61376864,13 3.25,12.6362314 3.25,12.1875 L3.25,9.75 L0.8125,9.75 C0.363768641,9.75 0,9.38623136 0,8.9375 C0,8.48876864 0.363768641,8.125 0.8125,8.125 L3.25,8.125 L3.25,4.875 L0.8125,4.875 C0.363768641,4.875 0,4.51123136 0,4.0625 C0,3.61376864 0.363768641,3.25 0.8125,3.25 L3.25,3.25 L3.25,0.8125 C3.25,0.363768641 3.61376864,-6.04002079e-15 4.0625,-6.06749766e-15 C4.51123136,-6.09497453e-15 4.875,0.363768641 4.875,0.8125 L4.875,3.25 Z" id="path-1"></path>
    </defs>
    <g id="Segmentation-tab1-newColumn" stroke="none" stroke-width="1" fill="none" fill-rule="evenodd" transform="translate(-1069.000000, -501.000000)">
        <g id="Group-15" transform="translate(1053.000000, 448.000000)">
            <g id="Publish-Draft-Copy" transform="translate(16.000000, 51.000000)">
                <g id="Icon/numbers" transform="translate(0.000000, 2.000000)">
                    <mask id="mask-2" fill="white">
                        <use xlink:href="#path-1"></use>
                    </mask>
                    <use id="Combined-Shape" fill="#7B8FA5" xlink:href="#path-1"></use>
                </g>
            </g>
        </g>
    </g>
</svg>