<?xml version="1.0" encoding="UTF-8"?>
<svg width="13px" height="13px" viewBox="0 0 13 13" version="1.1" xmlns="http://www.w3.org/2000/svg" xmlns:xlink="http://www.w3.org/1999/xlink">
    <!-- Generator: Sketch 48.2 (47327) - http://www.bohemiancoding.com/sketch -->
    <title>Icon/prioriti</title>
    <desc>Created with Sketch.</desc>
    <defs>
        <path d="M8.9375,1.20074153 C9.38623136,1.20074153 9.75,1.56451017 9.75,2.01324153 C9.75,2.46197288 9.38623136,2.82574153 8.9375,2.82574153 L0.8125,2.82574153 C0.363768641,2.82574153 0,2.46197288 0,2.01324153 C0,1.56451017 0.363768641,1.20074153 0.8125,1.20074153 L8.9375,1.20074153 Z M8.9375,4.44915254 C9.38623136,4.44915254 9.75,4.81292118 9.75,5.26165254 C9.75,5.7103839 9.38623136,6.07415254 8.9375,6.07415254 L4.0625,6.07415254 C3.61376864,6.07415254 3.25,5.7103839 3.25,5.26165254 C3.25,4.81292118 3.61376864,4.44915254 4.0625,4.44915254 L8.9375,4.44915254 Z M8.9375,7.69756356 C9.38623136,7.69756356 9.75,8.0613322 9.75,8.51006356 C9.75,8.95879492 9.38623136,9.32256356 8.9375,9.32256356 L5.6875,9.32256356 C5.23876864,9.32256356 4.875,8.95879492 4.875,8.51006356 C4.875,8.0613322 5.23876864,7.69756356 5.6875,7.69756356 L8.9375,7.69756356 Z M8.9375,10.9459746 C9.38623136,10.9459746 9.75,11.3097432 9.75,11.7584746 C9.75,12.2072059 9.38623136,12.5709746 8.9375,12.5709746 L7.3125,12.5709746 C6.86376864,12.5709746 6.5,12.2072059 6.5,11.7584746 C6.5,11.3097432 6.86376864,10.9459746 7.3125,10.9459746 L8.9375,10.9459746 Z M11.375,0.8125 C11.375,0.363768641 11.7387686,-3.44641501e-15 12.1875,-3.47389188e-15 C12.6362314,-3.50136876e-15 13,0.363768641 13,0.8125 L13,12.1875 C13,12.6362314 12.6362314,13 12.1875,13 C11.7387686,13 11.375,12.6362314 11.375,12.1875 L11.375,0.8125 Z" id="path-1"></path>
    </defs>
    <g id="Segmentation-tab1-newColumn" stroke="none" stroke-width="1" fill="none" fill-rule="evenodd" transform="translate(-1069.000000, -565.000000)">
        <g id="Group-15" transform="translate(1053.000000, 448.000000)">
            <g id="Publish-Draft-Copy-3" transform="translate(16.000000, 116.000000)">
                <g id="Icon/prioriti" transform="translate(0.000000, 1.000000)">
                    <mask id="mask-2" fill="white">
                        <use xlink:href="#path-1"></use>
                    </mask>
                    <use id="Combined-Shape" fill="#7B8FA5" fill-rule="nonzero" xlink:href="#path-1"></use>
                </g>
            </g>
        </g>
    </g>
</svg>