<?xml version="1.0" encoding="UTF-8"?>
<svg width="16px" height="17px" viewBox="0 0 16 17" version="1.1" xmlns="http://www.w3.org/2000/svg" xmlns:xlink="http://www.w3.org/1999/xlink">
    <!-- Generator: Sketch 49 (51002) - http://www.bohemiancoding.com/sketch -->
    <title>Icon/Objective</title>
    <desc>Created with Sketch.</desc>
    <defs></defs>
    <g id="Page-1" stroke="none" stroke-width="1" fill="none" fill-rule="evenodd">
        <g id="Segmentation-tab1-OpenProfile_businessCycle" transform="translate(-474.000000, -317.000000)" fill="#ED037C">
            <g id="Group" transform="translate(436.000000, 277.000000)">
                <g id="Objective" transform="translate(0.000000, 23.000000)">
                    <g id="Icon/Objective" transform="translate(38.000000, 17.000000)">
                        <g id="Group-51">
                            <path d="M12.2857143,8.10886571 C12.2857143,5.74451471 10.3664524,3.826504 8,3.826504 C5.63354756,3.826504 3.71428571,5.74451471 3.71428571,8.10886571 C3.71428571,10.4732167 5.63354756,12.3912274 8,12.3912274 C10.3664524,12.3912274 12.2857143,10.4732167 12.2857143,8.10886571 Z M14,8.10886571 C14,11.4202409 11.3129761,14.1055131 8,14.1055131 C4.68702386,14.1055131 2,11.4202409 2,8.10886571 C2,4.79749051 4.68702386,2.11221829 8,2.11221829 C11.3129761,2.11221829 14,4.79749051 14,8.10886571 Z" id="Stroke-416" fill-rule="nonzero"></path>
                            <path d="M7,1.11342894 C7,0.561144194 7.44771525,0.113428944 8,0.113428944 C8.55228475,0.113428944 9,0.561144194 9,1.11342894 L9,15.1043025 C9,15.6565872 8.55228475,16.1043025 8,16.1043025 C7.44771525,16.1043025 7,15.6565872 7,15.1043025 L7,1.11342894 Z" id="Stroke-417" fill-rule="nonzero"></path>
                            <path d="M15,7.10886571 C15.5522847,7.10886571 16,7.55658096 16,8.10886571 C16,8.66115046 15.5522847,9.10886571 15,9.10886571 L1,9.10886571 C0.44771525,9.10886571 0,8.66115046 0,8.10886571 C0,7.55658096 0.44771525,7.10886571 1,7.10886571 L15,7.10886571 Z" id="Stroke-418" fill-rule="nonzero"></path>
                        </g>
                    </g>
                </g>
            </g>
        </g>
    </g>
</svg>