<?xml version="1.0" encoding="UTF-8"?>
<svg width="12px" height="12px" viewBox="0 0 12 12" version="1.1" xmlns="http://www.w3.org/2000/svg" xmlns:xlink="http://www.w3.org/1999/xlink">
    <!-- Generator: Sketch 49 (51002) - http://www.bohemiancoding.com/sketch -->
    <title>Icon/Cancel</title>
    <desc>Created with Sketch.</desc>
    <defs>
        <path d="M2.76923077,1.84615385 L2.76923077,1.47701939 C2.76923077,0.661386449 3.49281095,0 4.38461538,0 L7.61538462,0 C8.50718905,0 9.23076923,0.661386449 9.23076923,1.47701939 L9.23076923,1.84615385 L11.25,1.84615385 C11.6642136,1.84615385 12,2.25942946 12,2.76923077 C12,3.27903208 11.6642136,3.69230769 11.25,3.69230769 L11.0769231,3.69230769 L11.0769231,10.461204 C11.0769231,11.3109509 10.4271776,12 9.62637363,12 L2.37362637,12 C1.57282239,12 0.923076923,11.3109509 0.923076923,10.461204 L0.923076923,3.69230769 L0.75,3.69230769 C0.335786438,3.69230769 0,3.27903208 0,2.76923077 C0,2.25942946 0.335786438,1.84615385 0.75,1.84615385 L2.76923077,1.84615385 Z M4.38461538,1.84615385 L7.61538462,1.84615385 L7.61538462,1.47726019 L4.38461538,1.47750098 L4.38461538,1.84615385 Z M2.37362637,3.69230769 L2.37362637,10.4609531 L9.62637363,10.4607023 L9.62637363,3.69230769 L2.37362637,3.69230769 Z M3.69230769,6.27721203 C3.69230769,5.8692114 4.10558331,5.53846154 4.61538462,5.53846154 C5.12518592,5.53846154 5.53846154,5.8692114 5.53846154,6.27721203 L5.53846154,8.49201874 C5.53846154,8.90001937 5.12518592,9.23076923 4.61538462,9.23076923 C4.10558331,9.23076923 3.69230769,8.90001937 3.69230769,8.49201874 L3.69230769,6.27721203 Z M6.46153846,6.27721203 C6.46153846,5.8692114 6.87481408,5.53846154 7.38461538,5.53846154 C7.89441669,5.53846154 8.30769231,5.8692114 8.30769231,6.27721203 L8.30769231,8.49201874 C8.30769231,8.90001937 7.89441669,9.23076923 7.38461538,9.23076923 C6.87481408,9.23076923 6.46153846,8.90001937 6.46153846,8.49201874 L6.46153846,6.27721203 Z" id="path-1"></path>
    </defs>
    <g id="Symbols" stroke="none" stroke-width="1" fill="none" fill-rule="evenodd">
        <g id="Button/Delete" transform="translate(-14.000000, -14.000000)">
            <g id="Cancel">
                <g id="Icon/trash" transform="translate(14.000000, 14.000000)">
                    <mask id="mask-2" fill="white">
                        <use xlink:href="#path-1"></use>
                    </mask>
                    <use id="Combined-Shape" fill="#7B8FA5" fill-rule="nonzero" xlink:href="#path-1"></use>
                    <g id="Color/Red" mask="url(#mask-2)" fill="#E74057" fill-rule="evenodd">
                        <rect id="Rectangle-5" x="0" y="0" width="12" height="12"></rect>
                    </g>
                </g>
            </g>
        </g>
    </g>
</svg>